<svg width="28" height="28" viewBox="0 0 28 28" fill="none" xmlns="http://www.w3.org/2000/svg">
<path d="M26.519 0H1.42516C1.04718 0 0.684676 0.150462 0.417407 0.418265C0.150138 0.686068 0 1.0493 0 1.42803V13.4004C0 13.7791 0.150138 14.1424 0.417407 14.4102C0.684676 14.678 1.04718 14.8284 1.42516 14.8284H6.57463V26.572C6.57463 26.9507 6.72477 27.3139 6.99204 27.5817C7.25931 27.8495 7.62181 28 7.99979 28H19.9483C20.1352 28 20.3204 27.963 20.4931 27.8912C20.6657 27.8194 20.8226 27.7141 20.9546 27.5815C21.0866 27.4488 21.1912 27.2914 21.2624 27.1182C21.3336 26.9449 21.37 26.7593 21.3695 26.572V14.8284H26.519C26.8969 14.8284 27.2594 14.678 27.5267 14.4102C27.794 14.1424 27.9441 13.7791 27.9441 13.4004V1.42803C27.9441 1.0493 27.794 0.686068 27.5267 0.418265C27.2594 0.150462 26.8969 0 26.519 0ZM1.6535 1.65681H13.1453V13.1716H1.6535V1.65681ZM19.7199 26.3432H8.22419V14.8284H19.7199V26.3432ZM26.2985 13.1716H14.7988V1.65681H26.2985V13.1716Z" fill="white"/>
</svg>
